<?xml version="1.0" encoding="UTF-8" standalone="no"?>
<!DOCTYPE svg PUBLIC "-//W3C//DTD SVG 1.1//EN" "http://www.w3.org/Graphics/SVG/1.1/DTD/svg11.dtd">
<svg width="100%" height="100%" viewBox="0 0 25 25" version="1.1" xmlns="http://www.w3.org/2000/svg" xmlns:xlink="http://www.w3.org/1999/xlink" xml:space="preserve" xmlns:serif="http://www.serif.com/" style="fill-rule:evenodd;clip-rule:evenodd;stroke-linejoin:round;stroke-miterlimit:1.41421;">
    <g transform="matrix(1,0,0,1,-411.679,-3721.68)">
        <g transform="matrix(0.342466,0,0,0.342466,297.448,3720.48)">
            <g transform="matrix(1,0,0,1,330.054,0)">
                <path d="M40.236,3.501L40.471,3.503L40.707,3.507L40.941,3.512L41.176,3.519L41.41,3.527L41.644,3.536L42.11,3.56L42.343,3.574L42.575,3.59L42.807,3.607L43.038,3.625L43.269,3.645L43.5,3.666L43.73,3.689L43.959,3.713L44.189,3.738L44.418,3.765L44.646,3.793L44.874,3.823L45.102,3.854L45.329,3.887L45.555,3.921L45.782,3.956L46.007,3.993L46.233,4.031L46.458,4.071L46.682,4.111L46.906,4.154L47.129,4.197L47.352,4.242L47.575,4.288L47.796,4.336L48.018,4.385L48.239,4.435L48.459,4.487L48.679,4.54L48.899,4.594L49.117,4.65L49.336,4.707L49.554,4.765L49.771,4.825L49.988,4.886L50.204,4.948L50.419,5.011L50.634,5.076L50.849,5.142L51.063,5.209L51.276,5.278L51.489,5.348L51.701,5.419L51.913,5.492L52.124,5.565L52.335,5.64L52.545,5.716L52.963,5.872L53.171,5.952L53.378,6.033L53.585,6.116L53.791,6.199L53.997,6.284L54.202,6.37L54.406,6.457L54.61,6.546L54.813,6.636L55.015,6.726L55.217,6.818L55.619,7.006L56.017,7.198L56.216,7.296L56.414,7.395L56.611,7.496L56.807,7.597L57.003,7.7L57.198,7.803L57.392,7.908L57.586,8.014L57.779,8.121L57.971,8.229L58.353,8.449L58.543,8.561L58.921,8.787L59.108,8.902L59.295,9.018L59.482,9.135L59.852,9.373L60.036,9.493L60.402,9.737L60.764,9.985L60.944,10.111L61.124,10.238L61.48,10.494L61.657,10.624L61.833,10.755L62.008,10.887L62.182,11.02L62.356,11.154L62.529,11.289L62.701,11.425L62.872,11.562L63.042,11.7L63.212,11.839L63.38,11.979L63.548,12.12L63.715,12.262L63.881,12.405L64.046,12.549L64.21,12.694L64.374,12.84L64.536,12.987L64.698,13.135L64.859,13.283L65.019,13.433L65.178,13.584L65.336,13.735L65.493,13.888L65.649,14.041L65.959,14.351L66.112,14.507L66.265,14.664L66.416,14.822L66.567,14.981L66.717,15.141L66.865,15.302L67.013,15.464L67.16,15.626L67.306,15.79L67.451,15.954L67.595,16.119L67.738,16.285L67.88,16.452L68.021,16.62L68.161,16.788L68.3,16.958L68.438,17.128L68.575,17.299L68.711,17.471L68.846,17.644L68.98,17.818L69.113,17.992L69.245,18.167L69.376,18.343L69.506,18.52L69.762,18.876L69.889,19.056L70.015,19.236L70.263,19.598L70.507,19.964L70.627,20.148L70.865,20.518L70.982,20.705L71.098,20.892L71.213,21.079L71.439,21.457L71.551,21.647L71.771,22.029L71.879,22.221L71.986,22.414L72.092,22.608L72.197,22.802L72.3,22.997L72.403,23.193L72.504,23.389L72.605,23.586L72.704,23.784L72.802,23.983L72.994,24.381L73.182,24.783L73.274,24.985L73.364,25.187L73.454,25.39L73.543,25.594L73.63,25.798L73.716,26.003L73.801,26.209L73.884,26.415L73.967,26.622L74.048,26.829L74.128,27.037L74.284,27.455L74.36,27.665L74.435,27.876L74.508,28.087L74.581,28.299L74.652,28.511L74.722,28.724L74.791,28.937L74.858,29.151L74.924,29.366L74.989,29.581L75.052,29.796L75.114,30.012L75.175,30.229L75.235,30.446L75.293,30.664L75.35,30.883L75.406,31.101L75.46,31.321L75.513,31.541L75.565,31.761L75.615,31.982L75.664,32.204L75.712,32.425L75.758,32.648L75.803,32.871L75.846,33.094L75.889,33.318L75.929,33.542L75.969,33.767L76.007,33.993L76.044,34.218L76.079,34.445L76.113,34.671L76.146,34.898L76.177,35.126L76.207,35.354L76.235,35.582L76.262,35.811L76.287,36.041L76.311,36.27L76.334,36.5L76.355,36.731L76.375,36.962L76.393,37.193L76.41,37.425L76.426,37.657L76.44,37.89L76.464,38.356L76.473,38.59L76.481,38.824L76.488,39.059L76.493,39.293L76.497,39.529L76.499,39.764L76.5,40L76.499,40.236L76.497,40.471L76.493,40.707L76.488,40.941L76.481,41.176L76.473,41.41L76.464,41.644L76.452,41.877L76.44,42.11L76.426,42.343L76.41,42.575L76.393,42.807L76.375,43.038L76.355,43.269L76.334,43.5L76.311,43.73L76.287,43.959L76.262,44.189L76.235,44.418L76.207,44.646L76.177,44.874L76.146,45.102L76.113,45.329L76.079,45.555L76.044,45.782L76.007,46.007L75.969,46.233L75.929,46.458L75.889,46.682L75.846,46.906L75.803,47.129L75.758,47.352L75.712,47.575L75.664,47.796L75.615,48.018L75.565,48.239L75.513,48.459L75.46,48.679L75.406,48.899L75.35,49.117L75.293,49.336L75.235,49.554L75.175,49.771L75.114,49.988L75.052,50.204L74.989,50.419L74.924,50.634L74.858,50.849L74.791,51.063L74.722,51.276L74.652,51.489L74.581,51.701L74.508,51.913L74.435,52.124L74.36,52.335L74.284,52.545L74.206,52.754L74.128,52.963L74.048,53.171L73.967,53.378L73.884,53.585L73.801,53.791L73.716,53.997L73.63,54.202L73.543,54.406L73.454,54.61L73.364,54.813L73.274,55.015L73.182,55.217L73.088,55.418L72.994,55.619L72.898,55.818L72.802,56.017L72.704,56.216L72.605,56.414L72.504,56.611L72.403,56.807L72.3,57.003L72.197,57.198L72.092,57.392L71.986,57.586L71.879,57.779L71.771,57.971L71.661,58.162L71.551,58.353L71.439,58.543L71.326,58.732L71.213,58.921L71.098,59.108L70.982,59.295L70.865,59.482L70.746,59.667L70.627,59.852L70.507,60.036L70.385,60.219L70.263,60.402L70.139,60.583L70.015,60.764L69.889,60.944L69.762,61.124L69.634,61.302L69.506,61.48L69.376,61.657L69.245,61.833L69.113,62.008L68.98,62.182L68.846,62.356L68.711,62.529L68.575,62.701L68.438,62.872L68.3,63.042L68.161,63.212L68.021,63.38L67.88,63.548L67.738,63.715L67.595,63.881L67.451,64.046L67.306,64.21L67.16,64.374L67.013,64.536L66.865,64.698L66.717,64.859L66.567,65.019L66.416,65.178L66.265,65.336L66.112,65.493L65.959,65.649L65.804,65.804L65.649,65.959L65.493,66.112L65.336,66.265L65.178,66.416L65.019,66.567L64.859,66.717L64.698,66.865L64.536,67.013L64.374,67.16L64.21,67.306L64.046,67.451L63.881,67.595L63.715,67.738L63.548,67.88L63.38,68.021L63.212,68.161L63.042,68.3L62.872,68.438L62.701,68.575L62.529,68.711L62.356,68.846L62.182,68.98L62.008,69.113L61.833,69.245L61.657,69.376L61.48,69.506L61.302,69.634L61.124,69.762L60.944,69.889L60.764,70.015L60.583,70.139L60.402,70.263L60.219,70.385L60.036,70.507L59.852,70.627L59.667,70.746L59.482,70.865L59.295,70.982L59.108,71.098L58.921,71.213L58.732,71.326L58.543,71.439L58.353,71.551L58.162,71.661L57.971,71.771L57.779,71.879L57.586,71.986L57.392,72.092L57.198,72.197L57.003,72.3L56.807,72.403L56.611,72.504L56.414,72.605L56.216,72.704L56.017,72.802L55.818,72.898L55.619,72.994L55.418,73.088L55.217,73.182L55.015,73.274L54.813,73.364L54.61,73.454L54.406,73.543L54.202,73.63L53.997,73.716L53.791,73.801L53.585,73.884L53.378,73.967L53.171,74.048L52.963,74.128L52.754,74.206L52.545,74.284L52.335,74.36L52.124,74.435L51.913,74.508L51.701,74.581L51.489,74.652L51.276,74.722L51.063,74.791L50.849,74.858L50.634,74.924L50.419,74.989L50.204,75.052L49.988,75.114L49.771,75.175L49.554,75.235L49.336,75.293L49.117,75.35L48.899,75.406L48.679,75.46L48.459,75.513L48.239,75.565L48.018,75.615L47.796,75.664L47.575,75.712L47.352,75.758L47.129,75.803L46.906,75.846L46.682,75.889L46.458,75.929L46.233,75.969L46.007,76.007L45.782,76.044L45.555,76.079L45.329,76.113L45.102,76.146L44.874,76.177L44.646,76.207L44.418,76.235L44.189,76.262L43.959,76.287L43.73,76.311L43.5,76.334L43.269,76.355L43.038,76.375L42.807,76.393L42.575,76.41L42.343,76.426L42.11,76.44L41.877,76.452L41.644,76.464L41.41,76.473L41.176,76.481L40.941,76.488L40.707,76.493L40.471,76.497L40.236,76.499L40,76.5L39.764,76.499L39.529,76.497L39.293,76.493L39.059,76.488L38.824,76.481L38.59,76.473L38.356,76.464L38.123,76.452L37.89,76.44L37.657,76.426L37.425,76.41L37.193,76.393L36.962,76.375L36.731,76.355L36.5,76.334L36.27,76.311L36.041,76.287L35.811,76.262L35.582,76.235L35.354,76.207L35.126,76.177L34.898,76.146L34.671,76.113L34.445,76.079L34.218,76.044L33.993,76.007L33.767,75.969L33.542,75.929L33.318,75.889L33.094,75.846L32.871,75.803L32.648,75.758L32.425,75.712L32.204,75.664L31.982,75.615L31.761,75.565L31.541,75.513L31.321,75.46L31.101,75.406L30.883,75.35L30.664,75.293L30.446,75.235L30.229,75.175L30.012,75.114L29.796,75.052L29.581,74.989L29.366,74.924L29.151,74.858L28.937,74.791L28.724,74.722L28.511,74.652L28.299,74.581L28.087,74.508L27.876,74.435L27.665,74.36L27.455,74.284L27.246,74.206L27.037,74.128L26.829,74.048L26.622,73.967L26.415,73.884L26.209,73.801L26.003,73.716L25.798,73.63L25.594,73.543L25.39,73.454L25.187,73.364L24.985,73.274L24.783,73.182L24.582,73.088L24.381,72.994L24.182,72.898L23.983,72.802L23.784,72.704L23.586,72.605L23.389,72.504L23.193,72.403L22.997,72.3L22.802,72.197L22.608,72.092L22.414,71.986L22.221,71.879L22.029,71.771L21.838,71.661L21.647,71.551L21.457,71.439L21.268,71.326L21.079,71.213L20.892,71.098L20.705,70.982L20.518,70.865L20.333,70.746L20.148,70.627L19.964,70.507L19.781,70.385L19.598,70.263L19.417,70.139L19.236,70.015L19.056,69.889L18.876,69.762L18.698,69.634L18.52,69.506L18.343,69.376L18.167,69.245L17.992,69.113L17.818,68.98L17.644,68.846L17.471,68.711L17.299,68.575L17.128,68.438L16.958,68.3L16.788,68.161L16.62,68.021L16.452,67.88L16.285,67.738L16.119,67.595L15.954,67.451L15.79,67.306L15.626,67.16L15.464,67.013L15.302,66.865L15.141,66.717L14.981,66.567L14.822,66.416L14.664,66.265L14.507,66.112L14.351,65.959L14.196,65.804L14.041,65.649L13.888,65.493L13.735,65.336L13.584,65.178L13.433,65.019L13.283,64.859L13.135,64.698L12.987,64.536L12.84,64.374L12.694,64.21L12.549,64.046L12.405,63.881L12.262,63.715L12.12,63.548L11.979,63.38L11.839,63.212L11.7,63.042L11.562,62.872L11.425,62.701L11.289,62.529L11.154,62.356L11.02,62.182L10.887,62.008L10.755,61.833L10.624,61.657L10.494,61.48L10.366,61.302L10.238,61.124L10.111,60.944L9.985,60.764L9.861,60.583L9.737,60.402L9.615,60.219L9.493,60.036L9.373,59.852L9.254,59.667L9.135,59.482L9.018,59.295L8.902,59.108L8.787,58.921L8.674,58.732L8.561,58.543L8.449,58.353L8.339,58.162L8.229,57.971L8.121,57.779L8.014,57.586L7.908,57.392L7.803,57.198L7.7,57.003L7.597,56.807L7.496,56.611L7.395,56.414L7.296,56.216L7.198,56.017L7.102,55.818L7.006,55.619L6.912,55.418L6.818,55.217L6.726,55.015L6.636,54.813L6.546,54.61L6.457,54.406L6.37,54.202L6.284,53.997L6.199,53.791L6.116,53.585L6.033,53.378L5.952,53.171L5.872,52.963L5.794,52.754L5.716,52.545L5.64,52.335L5.565,52.124L5.492,51.913L5.419,51.701L5.348,51.489L5.278,51.276L5.209,51.063L5.142,50.849L5.076,50.634L5.011,50.419L4.948,50.204L4.886,49.988L4.825,49.771L4.765,49.554L4.707,49.336L4.65,49.117L4.594,48.899L4.54,48.679L4.487,48.459L4.435,48.239L4.385,48.018L4.336,47.796L4.288,47.575L4.242,47.352L4.197,47.129L4.154,46.906L4.111,46.682L4.071,46.458L4.031,46.233L3.993,46.007L3.956,45.782L3.921,45.555L3.887,45.329L3.854,45.102L3.823,44.874L3.793,44.646L3.765,44.418L3.738,44.189L3.713,43.959L3.689,43.73L3.666,43.5L3.645,43.269L3.625,43.038L3.607,42.807L3.59,42.575L3.574,42.343L3.56,42.11L3.548,41.877L3.536,41.644L3.527,41.41L3.519,41.176L3.512,40.941L3.507,40.707L3.503,40.471L3.501,40.236L3.5,40L3.501,39.764L3.503,39.529L3.507,39.293L3.512,39.059L3.519,38.824L3.527,38.59L3.536,38.356L3.548,38.123L3.56,37.89L3.574,37.657L3.59,37.425L3.607,37.193L3.625,36.962L3.645,36.731L3.666,36.5L3.689,36.27L3.713,36.041L3.738,35.811L3.765,35.582L3.793,35.354L3.823,35.126L3.854,34.898L3.887,34.671L3.921,34.445L3.956,34.218L3.993,33.993L4.031,33.767L4.071,33.542L4.111,33.318L4.154,33.094L4.197,32.871L4.242,32.648L4.288,32.425L4.336,32.204L4.385,31.982L4.435,31.761L4.487,31.541L4.54,31.321L4.594,31.101L4.65,30.883L4.707,30.664L4.765,30.446L4.825,30.229L4.886,30.012L4.948,29.796L5.011,29.581L5.076,29.366L5.142,29.151L5.209,28.937L5.278,28.724L5.348,28.511L5.419,28.299L5.492,28.087L5.565,27.876L5.64,27.665L5.716,27.455L5.794,27.246L5.872,27.037L5.952,26.829L6.033,26.622L6.116,26.415L6.199,26.209L6.284,26.003L6.37,25.798L6.457,25.594L6.546,25.39L6.636,25.187L6.726,24.985L6.818,24.783L6.912,24.582L7.006,24.381L7.102,24.182L7.198,23.983L7.296,23.784L7.395,23.586L7.496,23.389L7.597,23.193L7.7,22.997L7.803,22.802L7.908,22.608L8.014,22.414L8.121,22.221L8.229,22.029L8.339,21.838L8.449,21.647L8.561,21.457L8.674,21.268L8.787,21.079L8.902,20.892L9.018,20.705L9.135,20.518L9.254,20.333L9.373,20.148L9.493,19.964L9.615,19.781L9.737,19.598L9.861,19.417L9.985,19.236L10.111,19.056L10.238,18.876L10.366,18.698L10.494,18.52L10.624,18.343L10.755,18.167L10.887,17.992L11.02,17.818L11.154,17.644L11.289,17.471L11.425,17.299L11.562,17.128L11.7,16.958L11.839,16.788L11.979,16.62L12.12,16.452L12.262,16.285L12.405,16.119L12.549,15.954L12.694,15.79L12.84,15.626L12.987,15.464L13.135,15.302L13.283,15.141L13.433,14.981L13.584,14.822L13.735,14.664L13.888,14.507L14.041,14.351L14.196,14.196L14.351,14.041L14.507,13.888L14.664,13.735L14.822,13.584L14.981,13.433L15.141,13.283L15.302,13.135L15.464,12.987L15.626,12.84L15.79,12.694L15.954,12.549L16.119,12.405L16.285,12.262L16.452,12.12L16.62,11.979L16.788,11.839L16.958,11.7L17.128,11.562L17.299,11.425L17.471,11.289L17.644,11.154L17.818,11.02L17.992,10.887L18.167,10.755L18.343,10.624L18.52,10.494L18.698,10.366L18.876,10.238L19.056,10.111L19.236,9.985L19.417,9.861L19.598,9.737L19.781,9.615L19.964,9.493L20.148,9.373L20.333,9.254L20.518,9.135L20.705,9.018L20.892,8.902L21.079,8.787L21.268,8.674L21.457,8.561L21.647,8.449L21.838,8.339L22.029,8.229L22.221,8.121L22.414,8.014L22.608,7.908L22.802,7.803L22.997,7.7L23.193,7.597L23.389,7.496L23.586,7.395L23.784,7.296L23.983,7.198L24.182,7.102L24.381,7.006L24.582,6.912L24.783,6.818L24.985,6.726L25.187,6.636L25.39,6.546L25.594,6.457L25.798,6.37L26.003,6.284L26.209,6.199L26.415,6.116L26.622,6.033L26.829,5.952L27.037,5.872L27.246,5.794L27.455,5.716L27.665,5.64L27.876,5.565L28.087,5.492L28.299,5.419L28.511,5.348L28.724,5.278L28.937,5.209L29.151,5.142L29.366,5.076L29.581,5.011L29.796,4.948L30.012,4.886L30.229,4.825L30.446,4.765L30.664,4.707L30.883,4.65L31.101,4.594L31.321,4.54L31.541,4.487L31.761,4.435L31.982,4.385L32.204,4.336L32.425,4.288L32.648,4.242L32.871,4.197L33.094,4.154L33.318,4.111L33.542,4.071L33.767,4.031L33.993,3.993L34.218,3.956L34.445,3.921L34.671,3.887L34.898,3.854L35.126,3.823L35.354,3.793L35.582,3.765L35.811,3.738L36.041,3.713L36.27,3.689L36.5,3.666L36.731,3.645L36.962,3.625L37.193,3.607L37.425,3.59L37.657,3.574L37.89,3.56L38.123,3.548L38.356,3.536L38.59,3.527L38.824,3.519L39.059,3.512L39.293,3.507L39.529,3.503L39.764,3.501L40,3.5L40.236,3.501ZM39.796,8.501L39.592,8.503L39.388,8.506L39.185,8.51L38.983,8.516L38.78,8.523L38.578,8.532L38.376,8.541L38.175,8.552L37.974,8.564L37.773,8.577L37.573,8.592L37.373,8.608L37.174,8.625L36.975,8.643L36.776,8.663L36.578,8.684L36.38,8.706L36.182,8.729L35.985,8.753L35.788,8.779L35.592,8.806L35.396,8.834L35.201,8.863L35.005,8.894L34.811,8.926L34.616,8.958L34.423,8.992L34.229,9.028L34.036,9.064L33.843,9.102L33.651,9.14L33.46,9.18L33.268,9.221L33.077,9.264L32.887,9.307L32.697,9.352L32.507,9.397L32.318,9.444L32.13,9.492L31.941,9.541L31.754,9.591L31.566,9.643L31.38,9.695L31.193,9.749L31.007,9.803L30.822,9.859L30.637,9.916L30.453,9.974L30.269,10.033L30.085,10.094L29.903,10.155L29.72,10.217L29.538,10.281L29.357,10.345L29.176,10.411L28.995,10.478L28.816,10.546L28.636,10.615L28.457,10.684L28.279,10.755L28.101,10.828L27.924,10.901L27.747,10.975L27.571,11.05L27.395,11.126L27.22,11.204L27.046,11.282L26.872,11.361L26.698,11.442L26.525,11.523L26.353,11.605L26.181,11.689L26.01,11.773L25.84,11.859L25.67,11.945L25.5,12.033L25.331,12.121L25.163,12.211L24.996,12.301L24.829,12.393L24.662,12.485L24.496,12.578L24.331,12.673L24.167,12.768L24.003,12.864L23.839,12.962L23.677,13.06L23.515,13.159L23.353,13.259L23.192,13.36L23.032,13.462L22.873,13.565L22.714,13.669L22.556,13.774L22.398,13.88L22.241,13.987L22.085,14.094L21.93,14.203L21.775,14.312L21.621,14.422L21.467,14.534L21.314,14.646L21.162,14.759L21.011,14.873L20.86,14.988L20.71,15.104L20.561,15.22L20.412,15.338L20.265,15.456L20.117,15.575L19.971,15.695L19.825,15.816L19.681,15.938L19.536,16.061L19.393,16.184L19.25,16.309L19.108,16.434L18.967,16.56L18.827,16.687L18.687,16.814L18.548,16.943L18.41,17.072L18.273,17.202L18.136,17.333L18,17.465L17.865,17.598L17.731,17.731L17.598,17.865L17.465,18L17.333,18.136L17.202,18.273L17.072,18.41L16.943,18.548L16.814,18.687L16.687,18.827L16.56,18.967L16.434,19.108L16.309,19.25L16.184,19.393L16.061,19.536L15.938,19.681L15.816,19.825L15.695,19.971L15.575,20.117L15.456,20.265L15.338,20.412L15.22,20.561L15.104,20.71L14.988,20.86L14.873,21.011L14.759,21.162L14.646,21.314L14.534,21.467L14.422,21.621L14.312,21.775L14.203,21.93L14.094,22.085L13.987,22.241L13.88,22.398L13.774,22.556L13.669,22.714L13.565,22.873L13.462,23.032L13.36,23.192L13.259,23.353L13.159,23.515L13.06,23.677L12.962,23.839L12.864,24.003L12.768,24.167L12.673,24.331L12.578,24.496L12.485,24.662L12.393,24.829L12.301,24.996L12.211,25.163L12.121,25.331L12.033,25.5L11.945,25.67L11.859,25.84L11.773,26.01L11.689,26.181L11.605,26.353L11.523,26.525L11.442,26.698L11.361,26.872L11.282,27.046L11.204,27.22L11.126,27.395L11.05,27.571L10.975,27.747L10.901,27.924L10.828,28.101L10.755,28.279L10.684,28.457L10.615,28.636L10.546,28.816L10.478,28.995L10.411,29.176L10.345,29.357L10.281,29.538L10.217,29.72L10.155,29.903L10.094,30.085L10.033,30.269L9.974,30.453L9.916,30.637L9.859,30.822L9.803,31.007L9.749,31.193L9.695,31.38L9.643,31.566L9.591,31.754L9.541,31.941L9.492,32.13L9.444,32.318L9.397,32.507L9.352,32.697L9.307,32.887L9.264,33.077L9.221,33.268L9.18,33.46L9.14,33.651L9.102,33.843L9.064,34.036L9.028,34.229L8.992,34.423L8.958,34.616L8.926,34.811L8.894,35.005L8.863,35.201L8.834,35.396L8.806,35.592L8.779,35.788L8.753,35.985L8.729,36.182L8.706,36.38L8.684,36.578L8.663,36.776L8.643,36.975L8.625,37.174L8.608,37.373L8.592,37.573L8.577,37.773L8.564,37.974L8.552,38.175L8.541,38.376L8.532,38.578L8.523,38.78L8.516,38.983L8.51,39.185L8.506,39.388L8.503,39.592L8.501,39.796L8.5,40L8.501,40.204L8.503,40.408L8.506,40.612L8.51,40.815L8.516,41.017L8.523,41.22L8.541,41.624L8.552,41.825L8.564,42.026L8.577,42.227L8.592,42.427L8.608,42.627L8.625,42.826L8.643,43.025L8.663,43.224L8.684,43.422L8.706,43.62L8.729,43.818L8.753,44.015L8.779,44.212L8.806,44.408L8.834,44.604L8.863,44.799L8.894,44.995L8.926,45.189L8.958,45.384L8.992,45.577L9.028,45.771L9.064,45.964L9.102,46.157L9.14,46.349L9.18,46.54L9.221,46.732L9.264,46.923L9.307,47.113L9.397,47.493L9.444,47.682L9.492,47.87L9.541,48.059L9.591,48.246L9.643,48.434L9.695,48.62L9.749,48.807L9.803,48.992L9.859,49.178L9.916,49.363L9.974,49.547L10.033,49.731L10.094,49.915L10.155,50.097L10.217,50.28L10.281,50.462L10.345,50.643L10.411,50.824L10.478,51.005L10.546,51.184L10.615,51.364L10.684,51.543L10.755,51.721L10.828,51.899L10.901,52.076L10.975,52.253L11.05,52.429L11.126,52.605L11.204,52.78L11.282,52.954L11.361,53.128L11.442,53.302L11.523,53.475L11.605,53.647L11.689,53.819L11.773,53.99L11.945,54.33L12.033,54.5L12.121,54.669L12.211,54.837L12.301,55.004L12.485,55.338L12.578,55.504L12.673,55.669L12.768,55.833L12.864,55.997L12.962,56.161L13.06,56.323L13.159,56.485L13.259,56.647L13.36,56.808L13.462,56.968L13.565,57.127L13.669,57.286L13.774,57.444L13.88,57.602L13.987,57.759L14.094,57.915L14.312,58.225L14.422,58.379L14.534,58.533L14.646,58.686L14.759,58.838L14.873,58.989L14.988,59.14L15.104,59.29L15.22,59.439L15.338,59.588L15.456,59.735L15.575,59.883L15.695,60.029L15.816,60.175L15.938,60.319L16.061,60.464L16.184,60.607L16.309,60.75L16.434,60.892L16.56,61.033L16.814,61.313L16.943,61.452L17.072,61.59L17.202,61.727L17.333,61.864L17.465,62L17.598,62.135L17.731,62.269L17.865,62.402L18,62.535L18.136,62.667L18.273,62.798L18.41,62.928L18.548,63.057L18.687,63.186L18.967,63.44L19.108,63.566L19.25,63.691L19.393,63.816L19.536,63.939L19.681,64.062L19.825,64.184L19.971,64.305L20.117,64.425L20.265,64.544L20.412,64.662L20.561,64.78L20.71,64.896L20.86,65.012L21.011,65.127L21.162,65.241L21.314,65.354L21.467,65.466L21.621,65.578L21.775,65.688L22.085,65.906L22.241,66.013L22.398,66.12L22.556,66.226L22.714,66.331L22.873,66.435L23.032,66.538L23.192,66.64L23.353,66.741L23.515,66.841L23.677,66.94L23.839,67.038L24.003,67.136L24.167,67.232L24.331,67.327L24.496,67.422L24.662,67.515L24.996,67.699L25.163,67.789L25.331,67.879L25.5,67.967L25.67,68.055L26.01,68.227L26.181,68.311L26.353,68.395L26.525,68.477L26.698,68.558L26.872,68.639L27.046,68.718L27.22,68.796L27.395,68.874L27.571,68.95L27.747,69.025L27.924,69.099L28.101,69.172L28.279,69.245L28.457,69.316L28.636,69.385L28.816,69.454L28.995,69.522L29.176,69.589L29.357,69.655L29.538,69.719L29.72,69.783L29.903,69.845L30.085,69.906L30.269,69.967L30.453,70.026L30.637,70.084L30.822,70.141L31.008,70.197L31.193,70.251L31.38,70.305L31.566,70.357L31.754,70.409L31.941,70.459L32.13,70.508L32.318,70.556L32.507,70.603L32.887,70.693L33.077,70.736L33.268,70.779L33.46,70.82L33.651,70.86L33.844,70.898L34.036,70.936L34.229,70.972L34.423,71.008L34.616,71.042L35.006,71.106L35.201,71.137L35.396,71.166L35.592,71.194L35.788,71.221L35.985,71.247L36.182,71.271L36.38,71.294L36.578,71.316L36.776,71.337L36.975,71.357L37.174,71.375L37.373,71.392L37.573,71.408L37.773,71.423L37.974,71.436L38.175,71.448L38.376,71.459L38.78,71.477L38.983,71.484L39.185,71.49L39.389,71.494L39.592,71.497L39.796,71.499L40,71.5L40.204,71.499L40.408,71.497L40.611,71.494L40.815,71.49L41.017,71.484L41.22,71.477L41.422,71.468L41.624,71.459L41.825,71.448L42.026,71.436L42.227,71.423L42.427,71.408L42.627,71.392L42.826,71.375L43.025,71.357L43.224,71.337L43.422,71.316L43.62,71.294L43.818,71.271L44.015,71.247L44.212,71.221L44.408,71.194L44.604,71.166L44.799,71.137L44.994,71.106L45.189,71.074L45.384,71.042L45.577,71.008L45.771,70.972L45.964,70.936L46.156,70.898L46.349,70.86L46.54,70.82L46.732,70.779L46.923,70.736L47.113,70.693L47.303,70.648L47.493,70.603L47.682,70.556L47.87,70.508L48.059,70.459L48.246,70.409L48.434,70.357L48.62,70.305L48.807,70.251L48.992,70.197L49.178,70.141L49.363,70.084L49.547,70.026L49.731,69.967L49.915,69.906L50.097,69.845L50.28,69.783L50.462,69.719L50.643,69.655L50.824,69.589L51.005,69.522L51.184,69.454L51.364,69.385L51.543,69.316L51.721,69.245L51.899,69.172L52.076,69.099L52.253,69.025L52.429,68.95L52.605,68.874L52.78,68.796L52.954,68.718L53.128,68.639L53.302,68.558L53.475,68.477L53.647,68.395L53.819,68.311L53.99,68.227L54.16,68.141L54.33,68.055L54.5,67.967L54.669,67.879L54.837,67.789L55.004,67.699L55.171,67.607L55.338,67.515L55.504,67.422L55.669,67.327L55.833,67.232L55.997,67.136L56.161,67.038L56.323,66.94L56.485,66.841L56.647,66.741L56.808,66.64L56.968,66.538L57.127,66.435L57.286,66.331L57.444,66.226L57.602,66.12L57.759,66.013L57.915,65.906L58.07,65.797L58.225,65.688L58.379,65.578L58.533,65.466L58.686,65.354L58.838,65.241L58.989,65.127L59.14,65.012L59.29,64.896L59.439,64.78L59.588,64.662L59.735,64.544L59.883,64.425L60.029,64.305L60.175,64.184L60.319,64.062L60.464,63.939L60.607,63.816L60.75,63.691L60.892,63.566L61.033,63.44L61.173,63.313L61.313,63.186L61.452,63.057L61.59,62.928L61.727,62.798L61.864,62.667L62,62.535L62.135,62.402L62.269,62.269L62.402,62.135L62.535,62L62.667,61.864L62.798,61.727L62.928,61.59L63.057,61.452L63.186,61.313L63.313,61.173L63.44,61.033L63.566,60.892L63.691,60.75L63.816,60.607L63.939,60.464L64.062,60.319L64.184,60.175L64.305,60.029L64.425,59.883L64.544,59.735L64.662,59.588L64.78,59.439L64.896,59.29L65.012,59.14L65.127,58.989L65.241,58.838L65.354,58.686L65.466,58.533L65.578,58.379L65.688,58.225L65.797,58.07L65.906,57.915L66.013,57.759L66.12,57.602L66.226,57.444L66.331,57.286L66.435,57.127L66.538,56.968L66.64,56.808L66.741,56.647L66.841,56.485L66.94,56.323L67.038,56.161L67.136,55.997L67.232,55.833L67.327,55.669L67.422,55.504L67.515,55.338L67.607,55.171L67.699,55.004L67.789,54.837L67.879,54.669L67.967,54.5L68.055,54.33L68.141,54.16L68.227,53.99L68.311,53.819L68.395,53.647L68.477,53.475L68.558,53.302L68.639,53.128L68.718,52.954L68.796,52.78L68.874,52.605L68.95,52.429L69.025,52.253L69.099,52.076L69.172,51.899L69.245,51.721L69.316,51.543L69.385,51.364L69.454,51.184L69.522,51.005L69.589,50.824L69.655,50.643L69.719,50.462L69.783,50.28L69.845,50.097L69.906,49.915L69.967,49.731L70.026,49.547L70.084,49.363L70.141,49.178L70.197,48.992L70.251,48.807L70.305,48.62L70.357,48.434L70.409,48.246L70.459,48.059L70.508,47.87L70.556,47.682L70.603,47.493L70.648,47.303L70.693,47.113L70.736,46.923L70.779,46.732L70.82,46.54L70.86,46.349L70.898,46.156L70.936,45.964L70.972,45.771L71.008,45.577L71.042,45.384L71.074,45.189L71.106,44.994L71.137,44.799L71.166,44.604L71.194,44.408L71.221,44.212L71.247,44.015L71.271,43.818L71.294,43.62L71.316,43.422L71.337,43.224L71.357,43.025L71.375,42.826L71.392,42.627L71.408,42.427L71.423,42.227L71.436,42.026L71.448,41.825L71.459,41.624L71.468,41.422L71.477,41.22L71.484,41.017L71.49,40.815L71.494,40.611L71.497,40.408L71.499,40.204L71.5,40L71.499,39.796L71.497,39.592L71.494,39.389L71.49,39.185L71.484,38.983L71.477,38.78L71.468,38.578L71.459,38.376L71.448,38.175L71.436,37.974L71.423,37.773L71.408,37.573L71.392,37.373L71.375,37.174L71.357,36.975L71.337,36.776L71.316,36.578L71.294,36.38L71.271,36.182L71.247,35.985L71.221,35.788L71.194,35.592L71.166,35.396L71.137,35.201L71.106,35.006L71.074,34.811L71.042,34.616L71.008,34.423L70.972,34.229L70.936,34.036L70.898,33.844L70.86,33.651L70.82,33.46L70.779,33.268L70.736,33.077L70.693,32.887L70.648,32.697L70.603,32.507L70.556,32.318L70.508,32.13L70.459,31.941L70.409,31.754L70.357,31.566L70.305,31.38L70.251,31.193L70.197,31.008L70.141,30.822L70.084,30.637L70.026,30.453L69.967,30.269L69.906,30.085L69.845,29.903L69.783,29.72L69.719,29.538L69.655,29.357L69.589,29.176L69.522,28.995L69.454,28.816L69.385,28.636L69.316,28.457L69.245,28.279L69.172,28.101L69.099,27.924L69.025,27.747L68.95,27.571L68.874,27.395L68.796,27.22L68.718,27.046L68.639,26.872L68.558,26.698L68.477,26.525L68.395,26.353L68.311,26.181L68.227,26.01L68.141,25.84L68.055,25.67L67.967,25.5L67.879,25.331L67.789,25.163L67.699,24.996L67.607,24.829L67.515,24.662L67.422,24.496L67.327,24.331L67.232,24.167L67.136,24.003L67.038,23.839L66.94,23.677L66.841,23.515L66.741,23.353L66.64,23.192L66.538,23.032L66.435,22.873L66.331,22.714L66.226,22.556L66.12,22.398L66.013,22.241L65.906,22.085L65.797,21.93L65.688,21.775L65.578,21.621L65.466,21.467L65.354,21.314L65.241,21.162L65.127,21.011L65.012,20.86L64.896,20.71L64.78,20.561L64.662,20.412L64.544,20.265L64.425,20.117L64.305,19.971L64.184,19.825L64.062,19.681L63.939,19.536L63.816,19.393L63.691,19.25L63.566,19.108L63.44,18.967L63.313,18.827L63.186,18.687L63.057,18.548L62.928,18.41L62.798,18.273L62.667,18.136L62.535,18L62.402,17.865L62.269,17.731L62.135,17.598L62,17.465L61.864,17.333L61.727,17.202L61.59,17.072L61.452,16.943L61.313,16.814L61.173,16.687L61.033,16.56L60.892,16.434L60.75,16.309L60.607,16.184L60.464,16.061L60.319,15.938L60.175,15.816L60.029,15.695L59.883,15.575L59.735,15.456L59.588,15.338L59.439,15.22L59.29,15.104L59.14,14.988L58.989,14.873L58.838,14.759L58.686,14.646L58.533,14.534L58.379,14.422L58.225,14.312L58.07,14.203L57.915,14.094L57.759,13.987L57.602,13.88L57.444,13.774L57.286,13.669L57.127,13.565L56.968,13.462L56.808,13.36L56.647,13.259L56.485,13.159L56.323,13.06L56.161,12.962L55.997,12.864L55.833,12.768L55.669,12.673L55.504,12.578L55.338,12.485L55.171,12.393L55.004,12.301L54.837,12.211L54.669,12.121L54.5,12.033L54.33,11.945L54.16,11.859L53.99,11.773L53.819,11.689L53.647,11.605L53.475,11.523L53.302,11.442L53.128,11.361L52.954,11.282L52.78,11.204L52.605,11.126L52.429,11.05L52.253,10.975L52.076,10.901L51.899,10.828L51.721,10.755L51.543,10.684L51.364,10.615L51.184,10.546L51.005,10.478L50.824,10.411L50.643,10.345L50.462,10.281L50.28,10.217L50.097,10.155L49.915,10.094L49.731,10.033L49.547,9.974L49.363,9.916L49.178,9.859L48.992,9.803L48.807,9.749L48.62,9.695L48.434,9.643L48.246,9.591L48.059,9.541L47.87,9.492L47.682,9.444L47.493,9.397L47.303,9.352L47.113,9.307L46.923,9.264L46.732,9.221L46.54,9.18L46.349,9.14L46.157,9.102L45.964,9.064L45.771,9.028L45.577,8.992L45.384,8.958L45.189,8.926L44.995,8.894L44.799,8.863L44.604,8.834L44.408,8.806L44.212,8.779L44.015,8.753L43.818,8.729L43.62,8.706L43.422,8.684L43.224,8.663L43.025,8.643L42.826,8.625L42.627,8.608L42.427,8.592L42.227,8.577L42.026,8.564L41.825,8.552L41.624,8.541L41.422,8.532L41.22,8.523L41.017,8.516L40.815,8.51L40.612,8.506L40.408,8.503L40.204,8.501L40,8.5L39.796,8.501Z" style="fill:rgb(68,84,158);"/>
            </g>
            <g transform="matrix(1,0,0,1,330.054,0)">
                <path d="M50.396,16.694L44.418,16.685C37.703,16.685 33.362,21.138 33.362,28.028L33.362,33.259L27.351,33.259C26.834,33.259 26.413,33.678 26.413,34.198L26.413,41.777C26.413,42.294 26.834,42.716 27.351,42.716L33.362,42.716L33.362,61.838C33.362,62.355 33.784,62.777 34.303,62.777L42.142,62.777C42.662,62.777 43.083,62.355 43.083,61.838L43.083,42.716L50.11,42.716C50.629,42.716 51.049,42.294 51.049,41.777L51.053,34.198C51.053,33.95 50.952,33.711 50.777,33.533C50.601,33.358 50.363,33.259 50.112,33.259L43.083,33.259L43.083,28.825C43.083,26.694 43.591,25.612 46.366,25.612L50.393,25.61C50.913,25.61 51.332,25.189 51.332,24.671L51.332,17.636C51.332,17.115 50.913,16.696 50.396,16.694Z" style="fill:rgb(68,84,158);fill-rule:nonzero;"/>
            </g>
        </g>
    </g>
</svg>
